# xmcd
#
# Track frame offsets: 
#        151
#        15270
#        31144
#        46566
#        60994
#        79607
#        95327
#        109168
#        126169
#        146943
#        163728
#        178199
#        195616
#        209750
#        231078
#        254240
#        268860
#
# Disc length: 3820 seconds
#
# Revision: 1
# Processed by: cddbd v1.5.1PL0 Copyright (c) Steve Scherf et al.
# Submitted via: ExactAudioCopy v0.95a5
#
DISCID=ee0eea11
DTITLE=Norah Jones - Feels Like Home [CD1]
DYEAR=2004
DGENRE=Country
TTITLE0=Sunrise
TTITLE1=What Am I To You
TTITLE2=Those Sweet Words
TTITLE3=Carnival Town
TTITLE4=In The Morning (Coffee Songs)
TTITLE5=Be Here To Love Me
TTITLE6=Creepin' In
TTITLE7=Toes
TTITLE8=Humble Me
TTITLE9=Above Ground
TTITLE10=The Long Way Home
TTITLE11=The Prettiest Thing
TTITLE12=Don't Miss You At All
TTITLE13=All Your Love
TTITLE14=Heart Of Mine
TTITLE15=Things You Don't Have To Do
TTITLE16=New York City (Radio Edit)
EXTD=Norah Jones
EXTT0=
EXTT1=
EXTT2=
EXTT3=
EXTT4=
EXTT5=
EXTT6=
EXTT7=
EXTT8=
EXTT9=
EXTT10=
EXTT11=
EXTT12=
EXTT13=
EXTT14=
EXTT15=
EXTT16=
PLAYORDER=
